<mxfile host="app.diagrams.net" agent="Mozilla/5.0 (Macintosh; Intel Mac OS X 10_15_7) AppleWebKit/605.1.15 (KHTML, like Gecko) Version/17.3.1 Safari/605.1.15" version="24.7.12">
  <diagram name="Page-1" id="OdBgKaAoPbrbGqz_YkZU">
    <mxGraphModel dx="1035" dy="689" grid="1" gridSize="10" guides="1" tooltips="1" connect="1" arrows="1" fold="1" page="1" pageScale="1" pageWidth="850" pageHeight="1100" math="0" shadow="0">
      <root>
        <mxCell id="0" />
        <mxCell id="1" parent="0" />
        <mxCell id="fmZWrexEu-023-qv5tjz-7" value="" style="rounded=0;whiteSpace=wrap;html=1;" vertex="1" parent="1">
          <mxGeometry x="160" y="680" width="120" height="60" as="geometry" />
        </mxCell>
        <mxCell id="fmZWrexEu-023-qv5tjz-8" value="" style="rounded=0;whiteSpace=wrap;html=1;" vertex="1" parent="1">
          <mxGeometry x="170" y="690" width="120" height="60" as="geometry" />
        </mxCell>
        <mxCell id="fmZWrexEu-023-qv5tjz-9" value="layered tokens&lt;div&gt;[B, H*W, C]&lt;/div&gt;" style="rounded=0;whiteSpace=wrap;html=1;" vertex="1" parent="1">
          <mxGeometry x="180" y="700" width="120" height="60" as="geometry" />
        </mxCell>
        <mxCell id="fmZWrexEu-023-qv5tjz-12" value="" style="endArrow=classic;html=1;rounded=0;" edge="1" parent="1">
          <mxGeometry width="50" height="50" relative="1" as="geometry">
            <mxPoint x="220" y="680" as="sourcePoint" />
            <mxPoint x="220" y="640" as="targetPoint" />
          </mxGeometry>
        </mxCell>
        <mxCell id="fmZWrexEu-023-qv5tjz-13" value="select hooks" style="rounded=1;whiteSpace=wrap;html=1;" vertex="1" parent="1">
          <mxGeometry x="160" y="600" width="120" height="40" as="geometry" />
        </mxCell>
        <mxCell id="fmZWrexEu-023-qv5tjz-14" value="" style="endArrow=classic;html=1;rounded=0;" edge="1" parent="1">
          <mxGeometry width="50" height="50" relative="1" as="geometry">
            <mxPoint x="220" y="600" as="sourcePoint" />
            <mxPoint x="220" y="560" as="targetPoint" />
          </mxGeometry>
        </mxCell>
        <mxCell id="fmZWrexEu-023-qv5tjz-16" value="List of 4 Tensor&lt;div&gt;[B, H*W, C]&lt;/div&gt;" style="rounded=1;whiteSpace=wrap;html=1;" vertex="1" parent="1">
          <mxGeometry x="160" y="280" width="100" height="280" as="geometry" />
        </mxCell>
        <mxCell id="fmZWrexEu-023-qv5tjz-39" style="edgeStyle=orthogonalEdgeStyle;rounded=0;orthogonalLoop=1;jettySize=auto;html=1;entryX=0.5;entryY=1;entryDx=0;entryDy=0;shape=link;dashed=1;" edge="1" parent="1" source="fmZWrexEu-023-qv5tjz-17" target="fmZWrexEu-023-qv5tjz-18">
          <mxGeometry relative="1" as="geometry" />
        </mxCell>
        <mxCell id="fmZWrexEu-023-qv5tjz-17" value="adapt tokens&lt;div&gt;(Identity)&lt;/div&gt;" style="rounded=1;whiteSpace=wrap;html=1;" vertex="1" parent="1">
          <mxGeometry x="290" y="490" width="100" height="40" as="geometry" />
        </mxCell>
        <mxCell id="fmZWrexEu-023-qv5tjz-40" style="edgeStyle=orthogonalEdgeStyle;rounded=0;orthogonalLoop=1;jettySize=auto;html=1;exitX=0.5;exitY=0;exitDx=0;exitDy=0;entryX=0.5;entryY=1;entryDx=0;entryDy=0;shape=link;dashed=1;" edge="1" parent="1" source="fmZWrexEu-023-qv5tjz-18" target="fmZWrexEu-023-qv5tjz-19">
          <mxGeometry relative="1" as="geometry" />
        </mxCell>
        <mxCell id="fmZWrexEu-023-qv5tjz-18" value="adapt tokens&lt;div&gt;(Identity)&lt;/div&gt;" style="rounded=1;whiteSpace=wrap;html=1;" vertex="1" parent="1">
          <mxGeometry x="290" y="430" width="100" height="40" as="geometry" />
        </mxCell>
        <mxCell id="fmZWrexEu-023-qv5tjz-41" style="edgeStyle=orthogonalEdgeStyle;rounded=0;orthogonalLoop=1;jettySize=auto;html=1;exitX=0.5;exitY=0;exitDx=0;exitDy=0;entryX=0.5;entryY=1;entryDx=0;entryDy=0;shape=link;dashed=1;" edge="1" parent="1" source="fmZWrexEu-023-qv5tjz-19" target="fmZWrexEu-023-qv5tjz-20">
          <mxGeometry relative="1" as="geometry" />
        </mxCell>
        <mxCell id="fmZWrexEu-023-qv5tjz-19" value="adapt tokens&lt;div&gt;(Identity)&lt;/div&gt;" style="rounded=1;whiteSpace=wrap;html=1;" vertex="1" parent="1">
          <mxGeometry x="290" y="370" width="100" height="40" as="geometry" />
        </mxCell>
        <mxCell id="fmZWrexEu-023-qv5tjz-20" value="adapt tokens&lt;div&gt;(Identity)&lt;/div&gt;" style="rounded=1;whiteSpace=wrap;html=1;" vertex="1" parent="1">
          <mxGeometry x="290" y="310" width="100" height="40" as="geometry" />
        </mxCell>
        <mxCell id="fmZWrexEu-023-qv5tjz-21" value="" style="endArrow=classic;html=1;rounded=0;entryX=0;entryY=0.5;entryDx=0;entryDy=0;" edge="1" parent="1" target="fmZWrexEu-023-qv5tjz-17">
          <mxGeometry width="50" height="50" relative="1" as="geometry">
            <mxPoint x="260" y="510" as="sourcePoint" />
            <mxPoint x="310" y="460" as="targetPoint" />
          </mxGeometry>
        </mxCell>
        <mxCell id="fmZWrexEu-023-qv5tjz-22" value="" style="endArrow=classic;html=1;rounded=0;entryX=0;entryY=0.5;entryDx=0;entryDy=0;" edge="1" parent="1" target="fmZWrexEu-023-qv5tjz-18">
          <mxGeometry width="50" height="50" relative="1" as="geometry">
            <mxPoint x="260" y="450" as="sourcePoint" />
            <mxPoint x="310" y="400" as="targetPoint" />
          </mxGeometry>
        </mxCell>
        <mxCell id="fmZWrexEu-023-qv5tjz-23" value="" style="endArrow=classic;html=1;rounded=0;entryX=0;entryY=0.5;entryDx=0;entryDy=0;" edge="1" parent="1" target="fmZWrexEu-023-qv5tjz-19">
          <mxGeometry width="50" height="50" relative="1" as="geometry">
            <mxPoint x="260" y="390" as="sourcePoint" />
            <mxPoint x="310" y="340" as="targetPoint" />
          </mxGeometry>
        </mxCell>
        <mxCell id="fmZWrexEu-023-qv5tjz-24" value="" style="endArrow=classic;html=1;rounded=0;entryX=0;entryY=0.5;entryDx=0;entryDy=0;" edge="1" parent="1" target="fmZWrexEu-023-qv5tjz-20">
          <mxGeometry width="50" height="50" relative="1" as="geometry">
            <mxPoint x="260" y="330" as="sourcePoint" />
            <mxPoint x="310" y="280" as="targetPoint" />
          </mxGeometry>
        </mxCell>
        <mxCell id="fmZWrexEu-023-qv5tjz-25" value="[0]" style="text;html=1;align=center;verticalAlign=middle;whiteSpace=wrap;rounded=0;" vertex="1" parent="1">
          <mxGeometry x="265" y="490" width="15" height="20" as="geometry" />
        </mxCell>
        <mxCell id="fmZWrexEu-023-qv5tjz-26" value="[1]" style="text;html=1;align=center;verticalAlign=middle;whiteSpace=wrap;rounded=0;" vertex="1" parent="1">
          <mxGeometry x="265" y="430" width="15" height="20" as="geometry" />
        </mxCell>
        <mxCell id="fmZWrexEu-023-qv5tjz-27" value="[2]" style="text;html=1;align=center;verticalAlign=middle;whiteSpace=wrap;rounded=0;" vertex="1" parent="1">
          <mxGeometry x="265" y="370" width="15" height="20" as="geometry" />
        </mxCell>
        <mxCell id="fmZWrexEu-023-qv5tjz-28" value="[3]" style="text;html=1;align=center;verticalAlign=middle;whiteSpace=wrap;rounded=0;" vertex="1" parent="1">
          <mxGeometry x="265" y="310" width="15" height="20" as="geometry" />
        </mxCell>
        <mxCell id="fmZWrexEu-023-qv5tjz-29" value="" style="endArrow=classic;html=1;rounded=0;" edge="1" parent="1">
          <mxGeometry width="50" height="50" relative="1" as="geometry">
            <mxPoint x="390" y="330" as="sourcePoint" />
            <mxPoint x="420" y="330" as="targetPoint" />
          </mxGeometry>
        </mxCell>
        <mxCell id="fmZWrexEu-023-qv5tjz-30" value="" style="endArrow=classic;html=1;rounded=0;" edge="1" parent="1">
          <mxGeometry width="50" height="50" relative="1" as="geometry">
            <mxPoint x="390" y="389.76" as="sourcePoint" />
            <mxPoint x="420" y="389.76" as="targetPoint" />
          </mxGeometry>
        </mxCell>
        <mxCell id="fmZWrexEu-023-qv5tjz-31" value="" style="endArrow=classic;html=1;rounded=0;" edge="1" parent="1">
          <mxGeometry width="50" height="50" relative="1" as="geometry">
            <mxPoint x="390" y="450" as="sourcePoint" />
            <mxPoint x="420" y="450" as="targetPoint" />
          </mxGeometry>
        </mxCell>
        <mxCell id="fmZWrexEu-023-qv5tjz-32" value="" style="endArrow=classic;html=1;rounded=0;" edge="1" parent="1">
          <mxGeometry width="50" height="50" relative="1" as="geometry">
            <mxPoint x="390" y="509.52" as="sourcePoint" />
            <mxPoint x="420" y="509.52" as="targetPoint" />
          </mxGeometry>
        </mxCell>
        <mxCell id="fmZWrexEu-023-qv5tjz-33" value="&lt;font style=&quot;font-size: 13px;&quot;&gt;rearrange&lt;/font&gt;&lt;font style=&quot;font-size: 9px;&quot;&gt;&amp;nbsp;&lt;/font&gt;&lt;div&gt;&lt;font style=&quot;font-size: 9px;&quot;&gt;[B,L,C]-&amp;gt;[B, C, NH, NW]&lt;/font&gt;&lt;/div&gt;" style="rounded=1;whiteSpace=wrap;html=1;" vertex="1" parent="1">
          <mxGeometry x="420" y="310" width="100" height="40" as="geometry" />
        </mxCell>
        <mxCell id="fmZWrexEu-023-qv5tjz-45" style="edgeStyle=orthogonalEdgeStyle;rounded=0;orthogonalLoop=1;jettySize=auto;html=1;exitX=0.5;exitY=0;exitDx=0;exitDy=0;entryX=0.5;entryY=1;entryDx=0;entryDy=0;shape=link;dashed=1;" edge="1" parent="1" source="fmZWrexEu-023-qv5tjz-34" target="fmZWrexEu-023-qv5tjz-33">
          <mxGeometry relative="1" as="geometry" />
        </mxCell>
        <mxCell id="fmZWrexEu-023-qv5tjz-34" value="&lt;font style=&quot;font-size: 13px;&quot;&gt;rearrange&lt;/font&gt;&lt;font style=&quot;font-size: 9px;&quot;&gt;&amp;nbsp;&lt;/font&gt;&lt;div&gt;&lt;font style=&quot;font-size: 9px;&quot;&gt;[B,L,C]-&amp;gt;[B, C, NH, NW]&lt;/font&gt;&lt;/div&gt;" style="rounded=1;whiteSpace=wrap;html=1;" vertex="1" parent="1">
          <mxGeometry x="420" y="370" width="100" height="40" as="geometry" />
        </mxCell>
        <mxCell id="fmZWrexEu-023-qv5tjz-44" style="edgeStyle=orthogonalEdgeStyle;rounded=0;orthogonalLoop=1;jettySize=auto;html=1;exitX=0.5;exitY=0;exitDx=0;exitDy=0;entryX=0.5;entryY=1;entryDx=0;entryDy=0;shape=link;dashed=1;" edge="1" parent="1" source="fmZWrexEu-023-qv5tjz-35" target="fmZWrexEu-023-qv5tjz-34">
          <mxGeometry relative="1" as="geometry" />
        </mxCell>
        <mxCell id="fmZWrexEu-023-qv5tjz-35" value="&lt;font style=&quot;font-size: 13px;&quot;&gt;rearrange&lt;/font&gt;&lt;font style=&quot;font-size: 9px;&quot;&gt;&amp;nbsp;&lt;/font&gt;&lt;div&gt;&lt;font style=&quot;font-size: 9px;&quot;&gt;[B,L,C]-&amp;gt;[B, C, NH, NW]&lt;/font&gt;&lt;/div&gt;" style="rounded=1;whiteSpace=wrap;html=1;" vertex="1" parent="1">
          <mxGeometry x="420" y="430" width="100" height="40" as="geometry" />
        </mxCell>
        <mxCell id="fmZWrexEu-023-qv5tjz-43" style="edgeStyle=orthogonalEdgeStyle;rounded=0;orthogonalLoop=1;jettySize=auto;html=1;entryX=0.5;entryY=1;entryDx=0;entryDy=0;shape=link;dashed=1;" edge="1" parent="1" source="fmZWrexEu-023-qv5tjz-36" target="fmZWrexEu-023-qv5tjz-35">
          <mxGeometry relative="1" as="geometry" />
        </mxCell>
        <mxCell id="fmZWrexEu-023-qv5tjz-36" value="&lt;font style=&quot;font-size: 13px;&quot;&gt;rearrange&lt;/font&gt;&lt;font style=&quot;font-size: 9px;&quot;&gt;&amp;nbsp;&lt;/font&gt;&lt;div&gt;&lt;font style=&quot;font-size: 9px;&quot;&gt;[B,L,C]-&amp;gt;[B, C, NH, NW]&lt;/font&gt;&lt;/div&gt;" style="rounded=1;whiteSpace=wrap;html=1;" vertex="1" parent="1">
          <mxGeometry x="420" y="490" width="100" height="40" as="geometry" />
        </mxCell>
        <mxCell id="fmZWrexEu-023-qv5tjz-47" value="div by patch" style="rounded=1;whiteSpace=wrap;html=1;" vertex="1" parent="1">
          <mxGeometry x="340" y="600" width="120" height="40" as="geometry" />
        </mxCell>
        <mxCell id="fmZWrexEu-023-qv5tjz-48" value="" style="endArrow=classic;html=1;rounded=0;entryX=0.5;entryY=1;entryDx=0;entryDy=0;" edge="1" parent="1" target="fmZWrexEu-023-qv5tjz-47">
          <mxGeometry width="50" height="50" relative="1" as="geometry">
            <mxPoint x="400" y="700" as="sourcePoint" />
            <mxPoint x="450" y="690" as="targetPoint" />
          </mxGeometry>
        </mxCell>
        <mxCell id="fmZWrexEu-023-qv5tjz-49" value="image_shape" style="text;html=1;align=center;verticalAlign=middle;whiteSpace=wrap;rounded=0;" vertex="1" parent="1">
          <mxGeometry x="360" y="710" width="80" height="30" as="geometry" />
        </mxCell>
        <mxCell id="fmZWrexEu-023-qv5tjz-50" value="" style="endArrow=classic;html=1;rounded=0;entryX=0.5;entryY=1;entryDx=0;entryDy=0;" edge="1" parent="1" target="fmZWrexEu-023-qv5tjz-36">
          <mxGeometry width="50" height="50" relative="1" as="geometry">
            <mxPoint x="400" y="600" as="sourcePoint" />
            <mxPoint x="450" y="550" as="targetPoint" />
            <Array as="points">
              <mxPoint x="400" y="560" />
              <mxPoint x="470" y="560" />
            </Array>
          </mxGeometry>
        </mxCell>
        <mxCell id="fmZWrexEu-023-qv5tjz-51" value="&lt;font style=&quot;font-size: 11px;&quot;&gt;NH=H//(stride_level * PH)&lt;/font&gt;&lt;div style=&quot;font-size: 11px;&quot;&gt;&lt;font style=&quot;font-size: 11px;&quot;&gt;NW=W//(stride_level * PW)&lt;/font&gt;&lt;br&gt;&lt;/div&gt;" style="text;html=1;align=center;verticalAlign=middle;whiteSpace=wrap;rounded=0;" vertex="1" parent="1">
          <mxGeometry x="460" y="600" width="160" height="40" as="geometry" />
        </mxCell>
        <mxCell id="fmZWrexEu-023-qv5tjz-52" value="act_process[0]" style="rounded=1;whiteSpace=wrap;html=1;fillColor=#dae8fc;strokeColor=#6c8ebf;verticalAlign=top;" vertex="1" parent="1">
          <mxGeometry x="590" y="530" width="170" height="130" as="geometry" />
        </mxCell>
        <mxCell id="fmZWrexEu-023-qv5tjz-53" value="act_process[1]" style="rounded=1;whiteSpace=wrap;html=1;fillColor=#dae8fc;strokeColor=#6c8ebf;verticalAlign=top;" vertex="1" parent="1">
          <mxGeometry x="590" y="390" width="170" height="130" as="geometry" />
        </mxCell>
        <mxCell id="fmZWrexEu-023-qv5tjz-54" value="act_process[2]" style="rounded=1;whiteSpace=wrap;html=1;fillColor=#dae8fc;strokeColor=#6c8ebf;verticalAlign=top;" vertex="1" parent="1">
          <mxGeometry x="590" y="300" width="170" height="80" as="geometry" />
        </mxCell>
        <mxCell id="fmZWrexEu-023-qv5tjz-55" value="act_process[3]" style="rounded=1;whiteSpace=wrap;html=1;fillColor=#dae8fc;strokeColor=#6c8ebf;align=center;verticalAlign=top;" vertex="1" parent="1">
          <mxGeometry x="590" y="160" width="170" height="130" as="geometry" />
        </mxCell>
        <mxCell id="fmZWrexEu-023-qv5tjz-62" value="channel proj&lt;div&gt;Edim[0]-&amp;gt; Ldim[0]&lt;/div&gt;" style="rounded=1;whiteSpace=wrap;html=1;" vertex="1" parent="1">
          <mxGeometry x="605" y="560" width="140" height="40" as="geometry" />
        </mxCell>
        <mxCell id="fmZWrexEu-023-qv5tjz-63" value="&lt;font style=&quot;font-size: 11px;&quot;&gt;convTranspose&lt;/font&gt;&lt;div style=&quot;font-size: 11px;&quot;&gt;&lt;font style=&quot;font-size: 11px;&quot;&gt;stride 4, kernel 4&lt;/font&gt;&lt;/div&gt;&lt;div style=&quot;font-size: 11px;&quot;&gt;&lt;font style=&quot;font-size: 11px;&quot;&gt;(upsample 4x), bias&lt;/font&gt;&lt;/div&gt;" style="rounded=1;whiteSpace=wrap;html=1;" vertex="1" parent="1">
          <mxGeometry x="605" y="610" width="140" height="40" as="geometry" />
        </mxCell>
        <mxCell id="fmZWrexEu-023-qv5tjz-64" value="channel proj&lt;div&gt;Edim[1]-&amp;gt; Ldim[1]&lt;/div&gt;" style="rounded=1;whiteSpace=wrap;html=1;" vertex="1" parent="1">
          <mxGeometry x="605" y="420" width="140" height="40" as="geometry" />
        </mxCell>
        <mxCell id="fmZWrexEu-023-qv5tjz-65" value="&lt;font style=&quot;font-size: 11px;&quot;&gt;convTranspose&lt;/font&gt;&lt;div style=&quot;font-size: 11px;&quot;&gt;&lt;font style=&quot;font-size: 11px;&quot;&gt;stride 2, kernel 2&lt;/font&gt;&lt;/div&gt;&lt;div style=&quot;font-size: 11px;&quot;&gt;&lt;font style=&quot;font-size: 11px;&quot;&gt;(upsample 2x), bias&lt;/font&gt;&lt;/div&gt;" style="rounded=1;whiteSpace=wrap;html=1;" vertex="1" parent="1">
          <mxGeometry x="605" y="470" width="140" height="40" as="geometry" />
        </mxCell>
        <mxCell id="fmZWrexEu-023-qv5tjz-66" value="channel proj&lt;div&gt;Edim[2]-&amp;gt; Ldim[2]&lt;/div&gt;" style="rounded=1;whiteSpace=wrap;html=1;" vertex="1" parent="1">
          <mxGeometry x="605" y="330" width="140" height="40" as="geometry" />
        </mxCell>
        <mxCell id="fmZWrexEu-023-qv5tjz-67" value="channel proj&lt;div&gt;Edim[3]-&amp;gt; Ldim[3]&lt;/div&gt;" style="rounded=1;whiteSpace=wrap;html=1;" vertex="1" parent="1">
          <mxGeometry x="605" y="190" width="140" height="40" as="geometry" />
        </mxCell>
        <mxCell id="fmZWrexEu-023-qv5tjz-68" value="Conv2D: Edim[3]-&amp;gt; Ldim[3], K=3, stride 2, pad 1(downsample 2x)" style="rounded=1;whiteSpace=wrap;html=1;" vertex="1" parent="1">
          <mxGeometry x="605" y="240" width="140" height="40" as="geometry" />
        </mxCell>
      </root>
    </mxGraphModel>
  </diagram>
</mxfile>
